<svg width="36" height="17" viewBox="0 0 36 17" fill="none" xmlns="http://www.w3.org/2000/svg">
<g clip-path="url(#clip0_311_66)">
<path d="M8.8485 0L8.98884 0.016915C13.3499 0.296225 16.7046 3.64982 16.9831 8.01117C16.9856 8.05137 16.9912 8.1039 17 8.143V8.8485L16.9831 8.98884C16.704 13.3474 13.3494 16.7068 8.98884 16.9831L8.8485 17H8.381C8.37216 16.9859 8.3487 16.9915 8.33434 16.9913C8.27059 16.9907 8.20658 16.9929 8.143 16.9915C6.48814 16.9534 4.77428 16.3212 3.45194 15.3458C1.39408 13.828 0.1802 11.5457 0.016915 8.98884C0.014365 8.94863 0.00884 8.8961 0 8.857V8.364C0.01683 8.29464 0.006885 8.21517 0.0085 8.143C0.105655 3.80766 3.80979 0.13124 8.13093 0.00884L8.1515 0H8.8485ZM5.49771 4.73697C4.60938 4.79578 4.01022 5.66551 4.24388 6.52129C4.29922 6.72393 4.41031 6.89682 4.51197 7.0777C5.64927 9.10061 6.84233 11.0937 7.99136 13.1098C8.24594 13.4338 8.74302 13.428 8.9879 13.0977L12.6353 6.76617C13.0999 5.86177 12.489 4.78542 11.4711 4.73408L5.49771 4.73697Z" fill="#744C00"/>
<path d="M8.38107 17.0001H8.14307V16.9916C8.20673 16.9931 8.27074 16.9908 8.3344 16.9914C8.34877 16.9916 8.37223 16.986 8.38107 17.0001Z" fill="#FDFEFE"/>
<path d="M0 8.36407V8.14307H0.0085C0.006885 8.21523 0.01683 8.29471 0 8.36407Z" fill="#FDFEFE"/>
<path d="M5.49773 4.73702L11.4711 4.73413C12.4891 4.78539 13.0999 5.86183 12.6354 6.76623L8.98792 13.0978C8.74303 13.428 8.24604 13.4339 7.99138 13.1099C6.84226 11.0937 5.6492 9.10067 4.51199 7.07775C4.41033 6.89687 4.29915 6.72398 4.2439 6.52134C4.01023 5.66548 4.6094 4.79584 5.49773 4.73702ZM7.98152 5.79706H5.57177C5.38069 5.79706 5.19564 6.06617 5.29399 6.24484L7.17546 9.61636L7.98152 11.1606V5.79706ZM11.4283 5.79706H9.01852V11.1606L9.82457 9.61636L11.706 6.24484C11.7941 6.04432 11.6363 5.82043 11.4283 5.79706Z" fill="#FDFEFE"/>
<path d="M7.9814 5.79712V11.1606L7.17535 9.61642L5.29387 6.2449C5.19553 6.06623 5.38057 5.79712 5.57165 5.79712H7.9814Z" fill="#744C00"/>
<path d="M11.4283 5.79712C11.6363 5.82049 11.7941 6.0443 11.7061 6.2449L9.82461 9.61642L9.01855 11.1606V5.79712H11.4283Z" fill="#744C00"/>
</g>
<circle cx="27.5" cy="8.5" r="8.5" fill="#744C00"/>
<path d="M27.7577 8.2238C27.6277 8.10935 24.8685 8.68383 24.2285 8.55912C23.8959 8.49455 22.7798 7.70308 22.6004 7.43537C22.4634 7.23057 22.4613 6.93128 22.6272 6.74117C22.9674 6.35125 25.1232 6.47845 25.6658 6.16114C26.0605 5.77593 26.816 3.72352 27.196 3.55614C27.4427 3.4475 27.7421 3.49794 27.9156 3.69526C28.3415 4.17912 28.6785 5.33363 29.0917 5.90923C29.2394 6.11513 29.3888 6.22987 29.6537 6.28557C30.1799 6.39614 32.0147 6.42247 32.3141 6.67826C32.5024 6.83899 32.5747 7.18291 32.4024 7.37496L30.3478 9.36945L30.6481 11.8775C30.4237 13.3961 28.5673 11.6857 27.8042 11.4717C27.5512 11.4008 27.3874 11.4005 27.1345 11.4717C26.5407 11.6388 25.7093 12.2818 25.1317 12.4231C24.4506 12.5899 24.332 12.1773 24.3688 11.6438C24.4256 10.8235 24.5653 10.0612 25.3414 9.60113C25.9763 9.22451 27.0754 8.91468 27.6268 8.49261C27.7333 8.41114 27.7803 8.36375 27.7574 8.2238H27.7577Z" fill="#FDFEFE"/>
<defs>
<clipPath id="clip0_311_66">
<rect width="17" height="17" fill="white"/>
</clipPath>
</defs>
</svg>
