<svg width="17" height="17" viewBox="0 0 17 17" fill="none" xmlns="http://www.w3.org/2000/svg">
<circle cx="8.5" cy="8.5" r="8.5" fill="#744C00"/>
<path d="M8.75769 8.2238C8.6277 8.10935 5.86848 8.68383 5.22852 8.55912C4.8959 8.49455 3.7798 7.70308 3.6004 7.43537C3.46335 7.23057 3.46129 6.93128 3.62717 6.74117C3.96744 6.35125 6.12317 6.47845 6.66578 6.16114C7.06046 5.77593 7.81599 3.72352 8.19596 3.55614C8.44271 3.4475 8.7421 3.49794 8.91562 3.69526C9.34147 4.17912 9.67851 5.33363 10.0917 5.90923C10.2394 6.11513 10.3888 6.22987 10.6537 6.28557C11.1799 6.39614 13.0147 6.42247 13.3141 6.67826C13.5024 6.83899 13.5747 7.18291 13.4024 7.37496L11.3478 9.36945L11.6481 11.8775C11.4237 13.3961 9.56734 11.6857 8.80416 11.4717C8.55123 11.4008 8.38742 11.4005 8.1345 11.4717C7.54072 11.6388 6.7093 12.2818 6.1317 12.4231C5.45057 12.5899 5.33205 12.1773 5.36881 11.6438C5.42557 10.8235 5.56527 10.0612 6.34139 9.60113C6.97634 9.22451 8.07538 8.91468 8.62682 8.49261C8.73328 8.41114 8.78033 8.36375 8.7574 8.2238H8.75769Z" fill="#FDFEFE"/>
</svg>
