<svg width="179" height="41" viewBox="0 0 179 41" fill="none" xmlns="http://www.w3.org/2000/svg">
<mask id="path-1-inside-1_311_34" fill="white">
<path d="M0 41H179V15C179 6.71573 172.284 0 164 0H15C6.71573 0 0 6.71573 0 15V41Z"/>
</mask>
<path d="M0 41H179V15C179 6.71573 172.284 0 164 0H15C6.71573 0 0 6.71573 0 15V41Z" fill="#D9D9D9" fill-opacity="0.13"/>
<path d="M0 41H179H0M180 15C180 6.16344 172.837 -1 164 -1H15C6.16344 -1 -1 6.16344 -1 15H1C1 7.26801 7.26801 1 15 1H164C171.732 1 178 7.26801 178 15H180ZM15 -1C6.16344 -1 -1 6.16344 -1 15V41H1V15C1 7.26801 7.26801 1 15 1V-1ZM180 41V15C180 6.16344 172.837 -1 164 -1V1C171.732 1 178 7.26801 178 15V41H180Z" fill="#FC9608" mask="url(#path-1-inside-1_311_34)"/>
</svg>
