<svg width="32" height="32" viewBox="0 0 32 32" fill="none" xmlns="http://www.w3.org/2000/svg">
<g clip-path="url(#clip0_311_25)">
<path d="M16.656 0L16.9202 0.03184C25.1293 0.5576 31.444 6.87024 31.9682 15.0798C31.973 15.1555 31.9834 15.2544 32 15.328V16.656L31.9682 16.9202C31.4429 25.1245 25.1283 31.4482 16.9202 31.9682L16.656 32H15.776C15.7594 31.9734 15.7152 31.984 15.6882 31.9837C15.5682 31.9824 15.4477 31.9867 15.328 31.984C12.213 31.9123 8.98688 30.7222 6.49776 28.8862C2.62416 26.0291 0.3392 21.7331 0.03184 16.9202C0.02704 16.8445 0.01664 16.7456 0 16.672V15.744C0.03168 15.6134 0.01296 15.4638 0.016 15.328C0.19888 7.16736 7.17136 0.24704 15.3053 0.01664L15.344 0H16.656ZM10.3486 8.91664C8.67648 9.02736 7.54864 10.6645 7.98848 12.2754C8.09264 12.6568 8.30176 12.9822 8.49312 13.3227C10.6339 17.1306 12.8797 20.8822 15.0426 24.6773C15.5218 25.2872 16.4574 25.2762 16.9184 24.6546L23.7842 12.7363C24.6586 11.0339 23.5086 9.00784 21.5926 8.9112L10.3486 8.91664Z" fill="#744C00"/>
<path d="M15.7759 32.0001H15.3279V31.9841C15.4477 31.9868 15.5682 31.9825 15.688 31.9837C15.7151 31.9841 15.7592 31.9735 15.7759 32.0001Z" fill="#FDFEFE"/>
<path d="M0 15.7439V15.3279H0.016C0.01296 15.4637 0.03168 15.6133 0 15.7439Z" fill="#FDFEFE"/>
<path d="M10.3486 8.91657L21.5926 8.91113C23.5087 9.00761 24.6585 11.0339 23.7841 12.7363L16.9183 24.6545C16.4574 25.2761 15.5219 25.2871 15.0425 24.6772C12.8795 20.8822 10.6337 17.1305 8.49306 13.3227C8.3017 12.9822 8.09242 12.6567 7.98842 12.2753C7.54858 10.6643 8.67641 9.02729 10.3486 8.91657ZM15.0239 10.9119H10.4879C10.1283 10.9119 9.77994 11.4185 9.96505 11.7548L13.5067 18.1012L15.0239 21.0079V10.9119ZM21.5119 10.9119H16.9759V21.0079L18.4932 18.1012L22.0348 11.7548C22.2006 11.3774 21.9035 10.9559 21.5119 10.9119Z" fill="#FDFEFE"/>
<path d="M15.024 10.9121V21.0081L13.5067 18.1014L9.96515 11.755C9.78003 11.4187 10.1283 10.9121 10.488 10.9121H15.024Z" fill="#744C00"/>
<path d="M21.5121 10.9121C21.9036 10.9561 22.2007 11.3774 22.035 11.755L18.4934 18.1014L16.9761 21.0081V10.9121H21.5121Z" fill="#744C00"/>
</g>
<defs>
<clipPath id="clip0_311_25">
<rect width="32" height="32" fill="white"/>
</clipPath>
</defs>
</svg>
